<svg xmlns="http://www.w3.org/2000/svg"  viewBox="0 0 100 100" width="500px" height="500px"><circle cx="78" cy="14" r="1" fill="#f1bc19"/><circle cx="50" cy="50" r="38" fill="#f9dbd2"/><circle cx="84" cy="16" r="4" fill="#f1bc19"/><circle cx="14" cy="26" r="2" fill="#ee3e54"/><circle cx="78" cy="77" r="2" fill="#fbcd59"/><circle cx="17" cy="78" r="4" fill="#fbcd59"/><circle cx="24" cy="83" r="2" fill="#ee3e54"/><circle cx="46.483" cy="82.517" r="2.483" fill="#fff"/><circle cx="16" cy="48" r="1" fill="#fff"/><circle cx="86" cy="31" r="1" fill="#f1bc19"/><circle cx="83" cy="53.125" r="2" fill="#fff"/><path fill="#f1bc19" d="M50.442,74.202c-9.3-0.001-17.858-6.526-21.297-16.238l-0.2-0.564l-0.589,0.11 c-0.118,0.022-0.239,0.033-0.359,0.033c-1.129,0-2.297-0.951-2.297-2.543c0-17.418,9.74-24.501,11.692-25.744 c2.17-1.478,4.543-2.492,7.073-3.028c1.337-0.283,2.708-0.427,4.074-0.427c0.876,0,1.764,0.059,2.639,0.176l0.35,0.06 c11.347,1.879,17.057,8.803,19.848,14.282c0.433,0.848,0.092,2.282-0.674,2.841l-0.391,0.285l0.128,0.466 c0.142,0.517,0.275,1.04,0.388,1.573c2.775,13.109-4.533,25.8-16.293,28.29C53.188,74.058,51.812,74.202,50.442,74.202 C50.443,74.202,50.443,74.202,50.442,74.202z"/><path fill="#472b29" d="M48.54,26.5c0.834,0,1.679,0.056,2.514,0.166c0.097,0.018,0.218,0.038,0.361,0.062 c11.058,1.831,16.62,8.574,19.338,13.909c0.276,0.541,0.024,1.602-0.464,1.958l-0.781,0.57l0.256,0.932 c0.16,0.584,0.28,1.071,0.378,1.533c2.696,12.73-4.37,25.049-15.752,27.459c-1.298,0.275-2.627,0.415-3.947,0.415 c-9.004,0-17.298-6.338-20.637-15.771l-0.4-1.129l-1.177,0.22c-0.075,0.014-0.153,0.021-0.231,0.021 c-0.663,0-1.598-0.572-1.598-1.843c0-17.052,9.47-23.945,11.404-25.178c2.076-1.414,4.366-2.393,6.806-2.91 C45.9,26.639,47.223,26.5,48.54,26.5 M48.54,25.1c-1.397,0-2.808,0.143-4.22,0.442c-2.68,0.568-5.135,1.645-7.304,3.123 C34.726,30.124,25,37.354,25,55c0,1.999,1.498,3.243,2.998,3.243c0.163,0,0.327-0.015,0.488-0.045 c3.542,10.005,12.412,16.704,21.957,16.704c1.403,0,2.82-0.145,4.237-0.445c12.157-2.575,19.693-15.612,16.832-29.119 c-0.116-0.547-0.252-1.083-0.398-1.614C72.151,42.968,72.586,41.15,72,40c-6.625-13-18.875-14.375-20.729-14.718 C50.37,25.162,49.458,25.1,48.54,25.1L48.54,25.1z"/><circle cx="41" cy="44.995" r="7" fill="#472b29"/><circle cx="38.5" cy="47.495" r="1.5" fill="#fff"/><circle cx="42" cy="42.995" r="3" fill="#fff"/><circle cx="62.5" cy="36.495" r="6.5" fill="#472b29"/><circle cx="60.5" cy="39.495" r="1.5" fill="#fff"/><circle cx="64" cy="34.995" r="3" fill="#fff"/><path fill="#f1bc19" d="M47,60c0,0-5.875-11.5,5-18c9.375-5.125,15.915,3.03,17,6c2.375,6.5-3,8.875-6.375,3.25 C60,46.875,56.917,45.85,55,47c-1.875,1.125-1.875,6.125-1.125,9.375C55.125,61.375,50.25,64.625,47,60z"/><path fill="#472b29" d="M50.554,62.723c-1.254,0-2.703-0.643-3.963-2.436c-0.014-0.019-0.025-0.039-0.036-0.06 c-0.061-0.119-5.959-11.994,5.188-18.657c3.471-1.897,6.867-2.234,10.119-1.01c3.961,1.491,6.833,5.147,7.607,7.267 c1.328,3.636,0.311,6.033-1.288,6.796c-1.589,0.759-4.06,0.093-5.985-3.117c-2.512-4.186-5.297-5.066-6.939-4.079 c-1.475,0.885-1.688,5.394-0.895,8.834c0.782,3.129-0.652,5.378-2.317,6.139C51.605,62.602,51.098,62.723,50.554,62.723z M47.43,59.742c1.232,1.736,2.8,2.389,4.199,1.75c1.301-0.595,2.407-2.412,1.761-4.996c-0.768-3.329-0.854-8.601,1.354-9.925 c2.071-1.243,5.444-0.356,8.311,4.421c1.593,2.655,3.553,3.276,4.697,2.729c1.189-0.568,1.893-2.504,0.779-5.55 c-0.557-1.525-3.006-5.163-7.021-6.675c-2.965-1.117-6.084-0.8-9.27,0.942C42.073,48.516,47.043,58.967,47.43,59.742z"/><g><ellipse cx="56.842" cy="46.884" fill="#472b29" rx="4.302" ry="2.633" transform="rotate(-30 56.839 46.886)"/></g><g><path fill="#472b29" d="M59.5,51.783c0,0-0.246,2.125-2.5,1.375s-1.792,1.625-0.25,1.875s3.698,0.134,4.254-2.25 C61.5,50.658,59.619,51.033,59.5,51.783z"/></g><g><path fill="#472b29" d="M57.486,55.307c-0.274,0-0.537-0.021-0.776-0.06c-0.771-0.125-1.281-0.699-1.445-1.213 c-0.129-0.401-0.059-0.786,0.188-1.029c0.227-0.225,0.695-0.427,1.627-0.117c0.63,0.21,1.14,0.195,1.513-0.042 c0.565-0.36,0.659-1.117,0.66-1.125l0.001-0.01c0.051-0.319,0.314-0.598,0.688-0.729c0.389-0.137,0.795-0.07,1.062,0.173 c0.245,0.224,0.486,0.694,0.243,1.656C60.772,54.694,58.953,55.307,57.486,55.307z M56.227,53.229 c-0.189,0-0.335,0.044-0.423,0.131c-0.158,0.156-0.097,0.417-0.063,0.521c0.118,0.369,0.488,0.781,1.05,0.872 c1.336,0.216,3.49-0.156,3.972-2.064c0.143-0.564,0.108-0.978-0.097-1.165c-0.154-0.142-0.392-0.128-0.559-0.07 c-0.192,0.068-0.336,0.201-0.359,0.332c-0.012,0.097-0.148,1.011-0.887,1.481c-0.506,0.323-1.16,0.354-1.939,0.095 C56.653,53.273,56.418,53.229,56.227,53.229z"/></g><g><path fill="#fff" d="M57.761,53.281c0.041,0.857,1.215,1.075,1.284-0.075c0.01-0.163,0.013-0.308,0.014-0.447 C58.8,53.068,58.396,53.318,57.761,53.281z"/><path fill="#fff" d="M57,53.125c-0.506-0.168-0.874-0.179-1.124-0.091c0,0.005,0,0.011-0.001,0.016 c-0.031,0.888,1.119,1.15,1.271,0.115C57.097,53.15,57.052,53.142,57,53.125z"/><path fill="#fff" d="M60.552,51.193c-0.436-0.126-0.99,0.161-1.052,0.557c0,0-0.032,0.258-0.165,0.561 c0.269,0.576,1.15,0.605,1.21-0.387C60.562,51.641,60.561,51.406,60.552,51.193z"/></g><g><path fill="#472b29" d="M33,40.494c-0.097,0-0.193-0.028-0.278-0.085c-0.229-0.154-0.29-0.462-0.138-0.691 c0.086-0.129,2.184-3.176,9.278-5.203c2.725-0.909,3.683-2.727,3.691-2.745c0.126-0.244,0.425-0.344,0.672-0.219 c0.245,0.124,0.345,0.423,0.222,0.669c-0.045,0.089-1.129,2.197-4.289,3.251c-6.715,1.919-8.724,4.776-8.743,4.805 C33.317,40.417,33.16,40.494,33,40.494z"/></g><g><path fill="#472b29" d="M62.125,30.121c-0.063,0-0.128-0.012-0.19-0.038c-1.855-0.764-4.211-0.392-5.77-0.146l-0.339,0.053 c-1.69,0.261-3.709-0.112-3.793-0.128c-0.271-0.051-0.45-0.312-0.399-0.583c0.05-0.271,0.307-0.452,0.583-0.399 c0.02,0.003,1.938,0.356,3.457,0.122l0.336-0.052c1.669-0.263,4.194-0.661,6.306,0.209c0.255,0.105,0.377,0.397,0.271,0.653 C62.508,30.004,62.321,30.12,62.125,30.121z"/></g><g><path fill="#472b29" d="M28.313,57.876c-0.057,0-0.092-0.002-0.1-0.003c-0.275-0.02-0.481-0.26-0.462-0.535 c0.021-0.275,0.286-0.483,0.532-0.462c0.045,0.004,0.869,0.038,1.593-0.662c0.778-0.752,1.167-2.119,1.124-3.952 c-0.006-0.276,0.212-0.505,0.488-0.511c0.305-0.006,0.505,0.212,0.512,0.488c0.05,2.166-0.438,3.752-1.451,4.715 C29.654,57.804,28.633,57.876,28.313,57.876z"/></g><g><path fill="#472b29" d="M70.125,44.125c-0.215,0-0.414-0.14-0.479-0.357c-0.357-1.19-0.839-2.16-0.844-2.17 c-0.123-0.247-0.023-0.547,0.224-0.671c0.248-0.123,0.547-0.023,0.671,0.224c0.021,0.042,0.523,1.053,0.906,2.33 c0.08,0.264-0.07,0.543-0.335,0.623C70.221,44.118,70.173,44.125,70.125,44.125z"/></g><g><path fill="#472b29" d="M51.75,71.121c-0.133,0-0.243-0.104-0.25-0.238c-0.007-0.138,0.1-0.255,0.237-0.262 c4.271-0.209,10.172-2.196,14.036-10.477c0.058-0.125,0.208-0.179,0.332-0.121c0.125,0.058,0.18,0.207,0.121,0.332 c-3.097,6.637-8.233,10.46-14.464,10.765C51.758,71.121,51.754,71.121,51.75,71.121z"/></g><g><path fill="#472b29" d="M49,71.028c-0.009,0-0.019,0-0.028-0.002c-3.202-0.367-6.484-1.645-9.241-3.597 c-0.112-0.08-0.14-0.236-0.06-0.349s0.236-0.139,0.349-0.06c2.689,1.905,5.889,3.15,9.009,3.508c0.138,0.016,0.235,0.14,0.22,0.277 C49.233,70.934,49.126,71.028,49,71.028z"/></g><g><path fill="#472b29" d="M37.875,65.854c-0.061,0-0.122-0.022-0.17-0.067c-1.378-1.278-2.487-2.68-3.3-4.168 c-0.065-0.121-0.021-0.273,0.1-0.339c0.12-0.065,0.272-0.022,0.34,0.1c0.786,1.44,1.862,2.8,3.2,4.041 c0.102,0.094,0.107,0.252,0.014,0.353C38.009,65.827,37.942,65.854,37.875,65.854z"/></g></svg>