<svg xmlns="http://www.w3.org/2000/svg"  viewBox="0 0 100 100" width="200px" height="200px"><circle cx="77" cy="13" r="1" fill="#f1bc19"/><circle cx="50" cy="50" r="37" fill="#e4e4f9"/><circle cx="83" cy="15" r="4" fill="#f1bc19"/><circle cx="87" cy="24" r="2" fill="#8889b9"/><circle cx="81" cy="76" r="2" fill="#fbcd59"/><circle cx="15" cy="63" r="4" fill="#fbcd59"/><circle cx="25" cy="87" r="2" fill="#8889b9"/><circle cx="18.5" cy="51.5" r="2.5" fill="#fff"/><circle cx="79.5" cy="33.5" r="1.5" fill="#fff"/><path fill="#fdfcef" d="M65.7,52.8v-8.6h3.712c0.766,0,1.388,0.622,1.388,1.388v5.824c0,0.766-0.622,1.388-1.388,1.388 H65.7z"/><path fill="#472b29" d="M69.412,44.9c0.379,0,0.688,0.309,0.688,0.688v5.824c0,0.379-0.309,0.688-0.688,0.688H66.4v-7.2 H69.412 M69.412,43.5H65v10h4.412c1.153,0,2.088-0.935,2.088-2.088v-5.824C71.5,44.435,70.565,43.5,69.412,43.5L69.412,43.5z"/><path fill="#fdfcef" d="M29.088,52.8c-0.766,0-1.388-0.622-1.388-1.388v-5.824c0-0.766,0.622-1.388,1.388-1.388H32.8v8.6 H29.088z"/><path fill="#472b29" d="M32.1,44.9v7.2h-3.012c-0.379,0-0.688-0.309-0.688-0.688v-5.824c0-0.379,0.309-0.688,0.688-0.688 H32.1 M33.5,43.5h-4.412C27.935,43.5,27,44.435,27,45.588v5.824c0,1.153,0.935,2.088,2.088,2.088H33.5V43.5L33.5,43.5z"/><path fill="#cbc9bc" d="M33,66.5l-2.75-2.875c0,0-6.5-6.375,1.75-12.625c3,5,7,10,7,10L33,66.5z"/><path fill="#cbc9bc" d="M66.812,65.813l3.688-4.375c0,0,4-5.875-4-9.875C63.5,56.563,60,61,60,61L66.812,65.813z"/><path fill="#fff" d="M49.562,21.688c10.53,0,19.555,6.149,19.375,18.125C68.75,52.313,60.03,66.438,49.5,66.438 c-5.748,0-10.995-4.247-14.594-10.168C31.912,51.344,30.057,45.261,30,39.5c-0.118-11.977,9.158-17.813,19.687-17.813"/><path fill="#472b29" d="M34.905,56.77c-0.168,0-0.333-0.085-0.427-0.24c-3.108-5.111-4.923-11.316-4.979-17.024 c-0.003-0.276,0.219-0.502,0.495-0.505c0.002,0,0.003,0,0.005,0c0.274,0,0.497,0.221,0.5,0.495 c0.055,5.533,1.815,11.553,4.832,16.515c0.144,0.236,0.069,0.544-0.167,0.687C35.084,56.746,34.994,56.77,34.905,56.77z"/><path fill="#472b29" d="M49.5,66.938c-4.866,0-9.684-2.921-13.564-8.225c-0.163-0.223-0.115-0.535,0.108-0.698 c0.222-0.164,0.535-0.115,0.698,0.108c3.688,5.039,8.219,7.814,12.758,7.814c10.444,0,18.756-14.048,18.938-26.133 c0.004-0.273,0.228-0.492,0.5-0.492c0.002,0,0.005,0,0.008,0c0.275,0.004,0.496,0.231,0.492,0.508 C69.249,52.36,60.499,66.938,49.5,66.938z"/><path fill="#836f61" d="M36.25,60.813l9.727-8.249c1.75-1.484,4.312-1.504,6.086-0.047l10.25,8.421L36.25,60.813z"/><path fill="#472b29" d="M62.313,61.438c-0.001,0-0.002,0-0.002,0l-26.063-0.125c-0.21-0.001-0.396-0.132-0.468-0.329 c-0.071-0.196-0.014-0.417,0.146-0.552l7.854-6.661c0.211-0.178,0.526-0.153,0.704,0.058c0.179,0.211,0.153,0.526-0.058,0.704 l-6.823,5.787l23.304,0.111l-9.163-7.527c-1.589-1.306-3.878-1.288-5.445,0.042c-0.209,0.178-0.525,0.153-0.705-0.059 c-0.178-0.211-0.152-0.526,0.059-0.705c1.936-1.639,4.766-1.661,6.727-0.052l10.25,8.421c0.163,0.135,0.225,0.357,0.153,0.557 C62.711,61.306,62.523,61.438,62.313,61.438z"/><path fill="#fff" d="M65.937,62.75c-6-3-11.437-5.75-11.437-5.75l-2.597-1.082c-1.837-0.766-3.91-0.733-5.722,0.091 L44,57c0,0-5.375,2.813-11.375,5.813S36,74,36,74l13.009-4.341L63,74C63,74,71.937,65.75,65.937,62.75z"/><path fill="#472b29" d="M32.625,63.313c-0.183,0-0.359-0.102-0.447-0.276c-0.123-0.247-0.023-0.547,0.224-0.671 c5.927-2.964,11.313-5.78,11.367-5.809l2.205-1.003c1.933-0.879,4.163-0.913,6.121-0.098l2.598,1.082 c0.033,0.016,5.47,2.766,11.469,5.765c0.247,0.124,0.347,0.424,0.224,0.671c-0.123,0.248-0.423,0.347-0.671,0.224 c-6.001-3.001-11.439-5.751-11.439-5.751L51.71,56.38c-1.702-0.71-3.641-0.679-5.322,0.084l-2.181,0.991 c-0.029,0.016-5.423,2.837-11.358,5.805C32.776,63.296,32.7,63.313,32.625,63.313z"/><path fill="#cbc9bc" d="M45.906,65.049c0.183-0.275,0.368-0.546,0.562-0.803c0.741-0.977,1.619-1.746,3.032-1.746 c0.4,0,0.763,0.062,1.095,0.172c0.256,0.085,0.494,0.199,0.717,0.336c2.305,1.411,3.08,5.278,5.938,5.278c1.937,0,2.737,0,4.359,0 c1.873,0,3.391,1.511,3.391,3.375v0C65,73.525,63.062,76,59.672,76c-7.266,0-5.328-4.821-10.111-4.821 c-4.904,0-2.967,4.821-10.232,4.821C35.937,76,34,73.525,34,71.661v0c0-1.864,1.518-3.375,3.391-3.375c1.579,0,3.391,0,4.359,0 c1.811,0,2.777-1.175,3.646-2.466C45.568,65.564,45.736,65.305,45.906,65.049"/><path fill="#472b29" d="M61.625,52.625c-2.354,0-4.684-1.55-6.936-3.048c-1-0.666-2.034-1.354-3.029-1.873 c-1.352-0.705-2.969-0.705-4.32,0c-0.779,0.406-1.55,0.897-2.2,1.324c-0.231,0.15-0.541,0.088-0.692-0.144 s-0.087-0.541,0.144-0.692c0.672-0.44,1.469-0.948,2.286-1.375c1.643-0.856,3.604-0.856,5.246,0 c1.042,0.543,2.099,1.247,3.12,1.927c2.129,1.416,4.329,2.881,6.382,2.881c0.95,0,1.776-0.193,2.456-0.574 c0.239-0.134,0.545-0.05,0.681,0.192c0.135,0.24,0.049,0.545-0.192,0.681C63.739,52.389,62.749,52.625,61.625,52.625z"/><path fill="#472b29" d="M38.368,52.529c-0.235,0-0.445-0.168-0.49-0.408c-0.051-0.271,0.128-0.533,0.399-0.583 c1.458-0.271,2.953-1.146,4.352-2.051c0.229-0.149,0.541-0.086,0.691,0.148c0.149,0.231,0.083,0.541-0.148,0.691 c-1.484,0.96-3.083,1.891-4.711,2.193C38.43,52.526,38.399,52.529,38.368,52.529z"/><path fill="#472b29" d="M36.471,52.566c-0.022,0-0.045-0.001-0.067-0.005c-0.894-0.119-1.69-0.416-2.367-0.884 c-0.228-0.156-0.284-0.468-0.127-0.695c0.157-0.229,0.469-0.285,0.695-0.127c0.546,0.376,1.195,0.617,1.932,0.716 c0.273,0.036,0.466,0.287,0.429,0.562C36.932,52.384,36.717,52.566,36.471,52.566z"/><ellipse cx="40" cy="72.25" fill="#8889b9" rx="2.5" ry="1.75"/><path fill="#472b29" d="M40,74.25c-1.517,0-2.75-0.897-2.75-2c0-0.138,0.112-0.25,0.25-0.25s0.25,0.112,0.25,0.25 c0,0.827,1.01,1.5,2.25,1.5c0.699,0,1.348-0.215,1.779-0.589c0.107-0.089,0.264-0.077,0.354,0.025 c0.09,0.104,0.078,0.263-0.025,0.354C41.586,73.991,40.817,74.25,40,74.25z"/><path fill="#472b29" d="M42.5,72.5c-0.138,0-0.25-0.112-0.25-0.25c0-0.827-1.01-1.5-2.25-1.5 c-0.543,0-1.068,0.133-1.479,0.374c-0.121,0.069-0.273,0.029-0.343-0.089c-0.069-0.119-0.029-0.272,0.089-0.343 C38.755,70.407,39.37,70.25,40,70.25c1.517,0,2.75,0.897,2.75,2C42.75,72.388,42.638,72.5,42.5,72.5z"/><path fill="#8889b9" d="M59,70.5c1.381,0,2.5,0.784,2.5,1.75S60.381,74,59,74s-2.5-0.784-2.5-1.75S57.619,70.5,59,70.5"/><path fill="#472b29" d="M59,74.25c-1.517,0-2.75-0.897-2.75-2c0-0.138,0.112-0.25,0.25-0.25s0.25,0.112,0.25,0.25 c0,0.827,1.01,1.5,2.25,1.5c0.699,0,1.348-0.215,1.779-0.589c0.107-0.089,0.264-0.077,0.354,0.025 c0.09,0.104,0.078,0.263-0.025,0.354C60.586,73.991,59.817,74.25,59,74.25z"/><path fill="#472b29" d="M61.5,72.5c-0.138,0-0.25-0.112-0.25-0.25c0-0.827-1.01-1.5-2.25-1.5c-0.138,0-0.25-0.112-0.25-0.25 s0.112-0.25,0.25-0.25c1.517,0,2.75,0.897,2.75,2C61.75,72.388,61.638,72.5,61.5,72.5z"/><path fill="#472b29" d="M57.395,71.158c-0.086,0-0.169-0.044-0.216-0.123c-0.069-0.119-0.029-0.272,0.089-0.343 C57.755,70.407,58.37,70.25,59,70.25c0.138,0,0.25,0.112,0.25,0.25s-0.112,0.25-0.25,0.25c-0.543,0-1.068,0.133-1.479,0.374 C57.481,71.147,57.438,71.158,57.395,71.158z"/><path fill="#8889b9" d="M37.132,42.5h8.442c0.384,0,0.573,0.482,0.289,0.75c-1.278,1.208-3.912,3.523-6.031,4.25 c-2.515,0.863-3.581-1.18-3.827-3.749C35.941,43.078,36.475,42.5,37.132,42.5z"/><path fill="#472b29" d="M38.737,48.202c-0.524,0-1-0.137-1.423-0.408c-0.992-0.64-1.617-2.021-1.808-3.995 c-0.044-0.46,0.109-0.92,0.421-1.262C36.238,42.195,36.677,42,37.132,42c0.276,0,0.5,0.224,0.5,0.5s-0.224,0.5-0.5,0.5 c-0.174,0-0.343,0.076-0.464,0.209c-0.124,0.137-0.183,0.313-0.165,0.494c0.157,1.635,0.638,2.789,1.354,3.25 c0.474,0.305,1.066,0.329,1.813,0.074c2.008-0.689,4.593-2.963,5.73-4.027h-6.025c-0.276,0-0.5-0.224-0.5-0.5s0.224-0.5,0.5-0.5 h6.199c0.38,0,0.716,0.229,0.858,0.585c0.143,0.359,0.055,0.763-0.225,1.028c-1.383,1.307-4.027,3.609-6.214,4.359 C39.55,48.126,39.13,48.202,38.737,48.202z M45.574,43h0.01H45.574z"/><path fill="#8889b9" d="M61.868,42.5h-8.442c-0.384,0-0.573,0.482-0.289,0.75c1.278,1.208,3.912,3.523,6.031,4.25 c2.515,0.863,3.581-1.18,3.827-3.749C63.059,43.078,62.525,42.5,61.868,42.5z"/><path fill="#472b29" d="M60.259,48.2c-0.393,0-0.812-0.075-1.253-0.228c-2.188-0.751-4.832-3.054-6.213-4.359 c-0.279-0.265-0.368-0.668-0.226-1.027C52.709,42.229,53.046,42,53.426,42h8.442c0.455,0,0.894,0.195,1.204,0.537 c0.312,0.342,0.465,0.802,0.421,1.262c-0.098,1.005-0.306,1.859-0.619,2.538c-0.116,0.251-0.412,0.359-0.664,0.244 c-0.25-0.116-0.359-0.413-0.244-0.664c0.267-0.576,0.445-1.321,0.531-2.214c0.018-0.182-0.041-0.357-0.165-0.494 C62.211,43.076,62.042,43,61.868,43h-8.268c1.137,1.064,3.719,3.337,5.729,4.027c0.587,0.201,1.095,0.227,1.51,0.077 c0.257-0.094,0.546,0.039,0.64,0.3c0.095,0.26-0.04,0.546-0.3,0.64C60.893,48.148,60.585,48.2,60.259,48.2z M53.426,43L53.426,43 L53.426,43z"/><rect width="38" height="2" x="30.5" y="38.5" fill="#836f61"/><path fill="#472b29" d="M49.5,22.4c8.992,0,18.6,4.558,18.6,17.35c0,3.649-0.674,7.463-1.949,11.03l-0.385,1.076 l0.977,0.593c4.49,2.723,5.311,5.021,3.106,8.748l-2.246,2.771l-0.379,0.467l0.078,0.596c0.284,2.169-2.803,6.367-4.821,8.508 l-0.031,0.033l-0.029,0.035C61.963,74.165,60.91,75.1,59,75.1c-3.359,0-3.965-0.982-4.732-2.224 c-0.723-1.171-1.713-2.776-4.706-2.776c-3.054,0-4.073,1.61-4.816,2.785C43.964,74.123,43.346,75.1,40,75.1 c-2.152,0-3.222-1.189-3.583-1.7l-0.061-0.086l-0.073-0.076c-2.82-2.938-5.43-6.834-4.961-8.595l0.19-0.715l-0.483-0.56 l-1.937-2.245c-1.145-1.541-1.566-2.994-1.252-4.318c0.38-1.599,1.871-3.086,4.314-4.3l1.114-0.553l-0.419-1.172 c-1.275-3.567-1.949-7.381-1.949-11.03C30.9,26.958,40.508,22.4,49.5,22.4 M49.5,21c-11.046,0-20,6.186-20,18.75 c0,3.924,0.732,7.868,2.031,11.501C26,54,25,58,28,62l1.969,2.282c-0.879,3.303,4.41,8.993,5.304,9.924 C36.157,75.46,37.773,76.5,40,76.5c7.5,0,4.5-5,9.562-5c4.938,0,1.938,5,9.438,5c2.051,0,3.583-0.884,4.503-2.003 c0.046-0.049,5.667-5.985,5.187-9.647L71,62c3-5,1-8-3.531-10.749c1.299-3.634,2.031-7.577,2.031-11.501 C69.5,27.186,60.546,21,49.5,21L49.5,21z"/><ellipse cx="49.5" cy="69" fill="#836f61" rx="3" ry="4.5"/><path fill="#472b29" d="M49.5,74c-1.963,0-3.5-2.196-3.5-5s1.537-5,3.5-5s3.5,2.196,3.5,5S51.463,74,49.5,74z M49.5,65 c-1.355,0-2.5,1.832-2.5,4s1.145,4,2.5,4s2.5-1.832,2.5-4S50.855,65,49.5,65z"/><path fill="#472b29" d="M30.5,57c-0.183,0-0.359-0.102-0.447-0.276c-0.123-0.247-0.023-0.547,0.224-0.671l2-1 c0.248-0.124,0.547-0.023,0.671,0.224c0.123,0.247,0.023,0.547-0.224,0.671l-2,1C30.651,56.983,30.575,57,30.5,57z"/><path fill="#472b29" d="M31.5,59c-0.183,0-0.359-0.102-0.447-0.276c-0.123-0.247-0.023-0.547,0.224-0.671l2-1 c0.248-0.125,0.547-0.023,0.671,0.224c0.123,0.247,0.023,0.547-0.224,0.671l-2,1C31.651,58.983,31.575,59,31.5,59z"/><path fill="#472b29" d="M32.5,61c-0.183,0-0.359-0.102-0.447-0.276c-0.123-0.247-0.023-0.547,0.224-0.671l2-1 c0.247-0.123,0.547-0.023,0.671,0.224c0.123,0.247,0.023,0.547-0.224,0.671l-2,1C32.651,60.983,32.575,61,32.5,61z"/><path fill="#472b29" d="M68.5,57c-0.075,0-0.151-0.017-0.224-0.053l-2-1c-0.247-0.124-0.347-0.424-0.224-0.671 c0.124-0.246,0.424-0.347,0.671-0.224l2,1c0.247,0.124,0.347,0.424,0.224,0.671C68.859,56.898,68.683,57,68.5,57z"/><path fill="#472b29" d="M67.5,59c-0.075,0-0.151-0.017-0.224-0.053l-2-1c-0.247-0.124-0.347-0.424-0.224-0.671 c0.125-0.247,0.424-0.348,0.671-0.224l2,1c0.247,0.124,0.347,0.424,0.224,0.671C67.859,58.898,67.683,59,67.5,59z"/><path fill="#472b29" d="M66.5,61c-0.075,0-0.151-0.017-0.224-0.053l-2-1c-0.247-0.124-0.347-0.424-0.224-0.671 c0.124-0.246,0.425-0.345,0.671-0.224l2,1c0.247,0.124,0.347,0.424,0.224,0.671C66.859,60.898,66.683,61,66.5,61z"/><rect width="1" height="4" x="48.5" y="51" fill="#472b29"/><rect width="1" height="4" x="51" y="52" fill="#472b29"/><rect width="1" height="4" x="46" y="52" fill="#472b29"/><rect width="1" height="2.5" x="43" y="54.5" fill="#472b29"/><g><rect width="1" height="2.5" x="54" y="54.5" fill="#472b29"/></g><g><path fill="#472b29" d="M65,72.161c-0.276,0-0.5-0.224-0.5-0.5c0-1.585-1.297-2.875-2.891-2.875H57.25 c-1.963,0-3.03-1.522-4.063-2.994C52.179,64.356,51.228,63,49.5,63c-0.858,0-1.537,0.317-2.201,1.028 c-0.187,0.202-0.505,0.213-0.706,0.024c-0.202-0.188-0.213-0.504-0.024-0.706C47.425,62.428,48.356,62,49.5,62 c2.247,0,3.447,1.71,4.505,3.218c0.968,1.378,1.803,2.568,3.245,2.568h4.359c2.146,0,3.891,1.738,3.891,3.875 C65.5,71.938,65.276,72.161,65,72.161z"/></g><g><path fill="#472b29" d="M43.665,68.227c-0.162,0-0.321-0.079-0.417-0.225c-0.152-0.23-0.089-0.54,0.142-0.692 c0.763-0.504,1.313-1.342,1.896-2.229l0.127-0.192c0.151-0.231,0.461-0.296,0.692-0.142c0.23,0.151,0.294,0.462,0.142,0.692 l-0.125,0.19c-0.612,0.933-1.246,1.896-2.181,2.514C43.855,68.2,43.76,68.227,43.665,68.227z"/></g><g><path fill="#472b29" d="M34,72.161c-0.276,0-0.5-0.224-0.5-0.5c0-2.137,1.745-3.875,3.891-3.875h4.359 c0.276,0,0.5,0.224,0.5,0.5s-0.224,0.5-0.5,0.5h-4.359c-1.594,0-2.891,1.29-2.891,2.875C34.5,71.938,34.276,72.161,34,72.161z"/></g><g><path fill="#472b29" d="M68.5,38.73H50.563c-0.138,0-0.25-0.112-0.25-0.25s0.112-0.25,0.25-0.25H68.5 c0.138,0,0.25,0.112,0.25,0.25S68.638,38.73,68.5,38.73z"/></g><g><path fill="#472b29" d="M49.25,38.73h-8.188c-0.138,0-0.25-0.112-0.25-0.25s0.112-0.25,0.25-0.25h8.188 c0.138,0,0.25,0.112,0.25,0.25S49.388,38.73,49.25,38.73z"/></g><g><path fill="#472b29" d="M38.875,38.73H32c-0.138,0-0.25-0.112-0.25-0.25s0.112-0.25,0.25-0.25h6.875 c0.138,0,0.25,0.112,0.25,0.25S39.013,38.73,38.875,38.73z"/></g><g><path fill="#472b29" d="M43.438,40.75H30.5c-0.138,0-0.25-0.112-0.25-0.25s0.112-0.25,0.25-0.25h12.938 c0.138,0,0.25,0.112,0.25,0.25S43.575,40.75,43.438,40.75z"/></g><g><path fill="#472b29" d="M68.5,40.75H46.313c-0.138,0-0.25-0.112-0.25-0.25s0.112-0.25,0.25-0.25H68.5 c0.138,0,0.25,0.112,0.25,0.25S68.638,40.75,68.5,40.75z"/></g><g><path fill="#472b29" d="M43.602,25.945c-0.217,0-0.417-0.142-0.48-0.36c-0.077-0.266,0.076-0.543,0.341-0.62 c1.599-0.464,3.371-0.748,5.27-0.846c0.313-0.032,0.511,0.198,0.524,0.474c0.015,0.275-0.197,0.511-0.474,0.524 c-1.82,0.094-3.517,0.366-5.041,0.809C43.694,25.939,43.647,25.945,43.602,25.945z"/></g><g><path fill="#472b29" d="M34.244,34.882c-0.028,0-0.056-0.002-0.084-0.007c-0.272-0.046-0.456-0.304-0.41-0.576 c0.037-0.22,0.975-5.403,7.046-8.321c0.249-0.12,0.548-0.015,0.667,0.233c0.12,0.249,0.016,0.548-0.233,0.667 c-5.61,2.697-6.485,7.538-6.493,7.587C34.695,34.709,34.483,34.882,34.244,34.882z"/></g></svg>