<svg xmlns="http://www.w3.org/2000/svg"  viewBox="0 0 100 100" width="200px" height="200px"><circle cx="77" cy="13" r="1" fill="#f1bc19"/><circle cx="50" cy="50" r="37" fill="#e6edb7"/><circle cx="83" cy="15" r="4" fill="#f1bc19"/><circle cx="87" cy="24" r="2" fill="#88ae45"/><circle cx="81" cy="76" r="2" fill="#fbcd59"/><circle cx="15" cy="63" r="4" fill="#fbcd59"/><circle cx="25" cy="87" r="2" fill="#88ae45"/><circle cx="18.5" cy="51.5" r="2.5" fill="#fff"/><circle cx="79.5" cy="33.5" r="1.5" fill="#fff"/><path fill="#f6cca4" d="M68.875,45.5c0,0,2,3-2,11c0,0,0,3-2,3s1-14,1-14H68.875z"/><path fill="#472b29" d="M64.875,60c-0.277,0-0.533-0.127-0.719-0.357c-1.372-1.697,0.784-12.166,1.229-14.248 C65.436,45.165,65.64,45,65.875,45h3c0.167,0,0.323,0.083,0.416,0.223c0.088,0.132,2.097,3.309-1.918,11.398 C67.34,57.857,66.788,60,64.875,60z M66.28,46c-1.225,5.828-2.074,12.358-1.34,13.022c1.409-0.022,1.435-2.498,1.435-2.523 c0-0.077,0.019-0.154,0.053-0.223c3.192-6.384,2.45-9.459,2.133-10.276H66.28z"/><path fill="#f6cca4" d="M31.187,45.5c0,0-2,3,2,11c0,0,0,3,2,3s-1-14-1-14H31.187z"/><path fill="#472b29" d="M35.188,60c-1.914,0-2.465-2.143-2.499-3.379c-4.014-8.09-2.005-11.267-1.917-11.398 C30.864,45.083,31.021,45,31.188,45h3c0.236,0,0.439,0.165,0.489,0.395c0.446,2.082,2.602,12.551,1.23,14.248 C35.72,59.873,35.465,60,35.188,60z M31.502,46c-0.317,0.817-1.06,3.892,2.133,10.276c0.035,0.069,0.052,0.146,0.053,0.223 c0,0.025,0.025,2.501,1.5,2.501c0.67-0.643-0.18-7.172-1.405-13H31.502z"/><path fill="#f6cca4" d="M48.544,78.3c-2.957,0-5.722-1.479-7.216-3.86c-2.023-3.223-3.714-6.699-5.026-10.329 c-0.289-0.8-0.508-1.66-0.669-2.627L32.827,44.7h34.346l-2.806,16.784c-0.158,0.95-0.384,1.833-0.67,2.627 c-1.31,3.628-3,7.104-5.025,10.33c-1.495,2.381-4.26,3.86-7.216,3.86H48.544z"/><path fill="#472b29" d="M66.346,45.4l-2.67,15.969c-0.155,0.925-0.363,1.744-0.638,2.504 c-1.293,3.583-2.962,7.013-4.96,10.195c-1.368,2.179-3.906,3.532-6.623,3.532H50h-1.456c-2.718,0-5.256-1.354-6.623-3.532 c-1.998-3.183-3.667-6.613-4.96-10.195c-0.275-0.76-0.483-1.579-0.638-2.504L33.654,45.4H50H66.346 M68,44H50H32l2.942,17.6 c0.156,0.932,0.379,1.856,0.702,2.749c1.334,3.694,3.031,7.182,5.091,10.464C42.368,77.413,45.343,79,48.544,79H50h1.456 c3.201,0,6.176-1.587,7.809-4.188c2.06-3.282,3.758-6.77,5.091-10.464c0.322-0.893,0.546-1.817,0.702-2.749L68,44L68,44z"/><path fill="#fff" d="M39.5,52.5h5l1,1C45.5,53.5,41.5,56.5,39.5,52.5z"/><path fill="#472b29" d="M42.831,58.75h-4.202c-3.362,0-3.401-3.218-3.401-3.25v-3c0-1.084,1.064-2.25,3.401-2.25h7.353 c1.331,0,1.87,0.651,2.089,1.198c0.761,1.904-1.121,5.476-1.917,6.234C45.044,58.738,42.921,58.75,42.831,58.75z M38.629,50.75 c-1.993,0-2.901,0.907-2.901,1.75v3c0,0.112,0.044,2.75,2.901,2.75h4.202c0.02,0,2.014-0.013,2.979-0.931 c0.691-0.657,2.458-4.034,1.797-5.686c-0.238-0.594-0.769-0.883-1.625-0.883H38.629z"/><path fill="#836f61" d="M55,64.019l-3.375-0.644C51,64.276,50.25,64.663,49.75,64.663c-1,0-1.241-0.517-1.875-1.159 L45,64.019c0,0-4,1.03-4,5.15c0,2.06,0,3.09,0,4.12s2,7.211,9,7.211s9-6.18,9-7.211s0-2.06,0-4.12C59,65.049,55,64.019,55,64.019z M56,69.169c-0.247,1.368-4,2.446-6,2.446s-5.753-1.078-6-2.446c-0.129-0.717,0.375-1.545,1-1.416c2.25,0.386,3,0.386,5,0.386 s2.75,0,5-0.386C55.625,67.624,56.129,68.452,56,69.169z"/><path fill="#472b29" d="M50,81c-7.021,0-9.5-6.141-9.5-7.71v-4.12c0-4.456,4.332-5.623,4.375-5.635l2.911-0.523 c0.166-0.029,0.329,0.024,0.444,0.141c0.123,0.124,0.231,0.244,0.333,0.356c0.407,0.449,0.592,0.654,1.186,0.654 c0.347,0,0.953-0.336,1.464-1.073c0.113-0.163,0.312-0.243,0.505-0.206l3.375,0.644c0.011,0.002,0.021,0.004,0.031,0.007 c0.043,0.011,4.375,1.178,4.375,5.635v4.12C59.5,74.859,57.021,81,50,81z M47.698,64.043l-2.61,0.468 c-0.11,0.031-3.588,0.987-3.588,4.658v4.12c0,0.797,1.795,6.71,8.5,6.71s8.5-5.914,8.5-6.71v-4.12c0-3.593-3.33-4.585-3.611-4.663 l-3.05-0.582c-0.724,0.907-1.538,1.238-2.089,1.238c-1.037,0-1.469-0.477-1.927-0.982C47.783,64.136,47.741,64.09,47.698,64.043z M50,72.116c-1.787,0-6.151-0.972-6.492-2.858c-0.106-0.588,0.098-1.251,0.508-1.651c0.305-0.298,0.702-0.423,1.085-0.344 c2.191,0.376,2.929,0.376,4.899,0.376c1.97,0,2.707,0,4.915-0.379c0.373-0.077,0.765,0.05,1.068,0.346 c0.41,0.399,0.614,1.063,0.509,1.651c0,0,0,0,0,0C56.151,71.144,51.787,72.116,50,72.116z M44.873,68.241 c-0.038,0-0.09,0.014-0.159,0.082c-0.174,0.17-0.269,0.495-0.222,0.758c0.158,0.875,3.298,2.035,5.508,2.035 s5.349-1.16,5.508-2.035l0,0c0.047-0.263-0.048-0.589-0.222-0.758c-0.099-0.096-0.164-0.084-0.186-0.08 c-2.308,0.396-3.068,0.396-5.101,0.396s-2.792,0-5.084-0.394C44.904,68.243,44.89,68.241,44.873,68.241z M56,69.169h0.01H56z"/><path fill="#9f8066" d="M51.878,48.206c-0.855,0-1.649-0.01-2.361-0.022c-0.749,0.013-1.555,0.022-2.426,0.022 c-11.044,0-18.635-1.599-22.56-4.752c-2.434-1.955-2.315-2.741-2.266-2.879c0.154-0.439,1.395-0.883,3.466-0.883 c0.242,0,0.395,0.007,0.403,0.007L72.454,39.7c0.043-0.001,0.191-0.008,0.429-0.008c2.024,0,3.24,0.441,3.396,0.877 c0.05,0.138,0.174,0.928-2.227,2.889C70.194,46.608,62.733,48.206,51.878,48.206C51.878,48.206,51.879,48.206,51.878,48.206z"/><path fill="#472b29" d="M72.883,40.392c1.5,0,2.366,0.25,2.677,0.423c-0.109,0.255-0.509,0.922-1.952,2.1 c-3.729,3.046-11.04,4.59-21.731,4.59c-0.852,0-1.641-0.009-2.398-0.022c-0.721,0.013-1.523,0.022-2.39,0.022 c-10.881,0-18.324-1.546-22.122-4.597c-1.448-1.163-1.863-1.828-1.98-2.089c0.323-0.176,1.21-0.428,2.742-0.428 c0.216,0,0.355,0.006,0.368,0.006l0.034,0.001h0.034H48.99h1.037h22.427h0.035l0.033-0.001 C72.537,40.397,72.672,40.392,72.883,40.392 M72.883,38.992c-0.265,0-0.429,0.008-0.429,0.008H50.027H48.99H26.167 c0,0-0.167-0.008-0.436-0.008c-1.695,0-7.473,0.321-1.639,5.008c5.374,4.317,16.149,4.906,22.998,4.906 c0.876,0,1.686-0.01,2.414-0.022c0.715,0.013,1.513,0.022,2.374,0.022c6.736,0,17.331-0.589,22.616-4.906 C80.231,39.313,74.551,38.992,72.883,38.992L72.883,38.992z"/><path fill="#9f8066" d="M66.982,34.947l-0.686-8.405c-0.164-2.009-1.419-3.709-3.165-4.244C59.224,21.1,54.4,20,49.5,20 s-9.724,1.1-13.631,2.297c-1.746,0.535-3.001,2.235-3.165,4.244l-0.686,8.405C32.006,35.093,32,35.24,32,35.387v7.363 C32,44.917,40.385,46,49.5,46S67,44.917,67,42.75v-7.363C67,35.24,66.994,35.093,66.982,34.947z"/><path fill="#fff" d="M60.522,52.5h-5l-1,1C54.522,53.5,58.522,56.5,60.522,52.5z"/><path fill="#472b29" d="M61.366,58.75h-4.179c-0.09,0-2.202-0.012-3.306-1.07c-0.827-0.792-2.722-4.316-1.954-6.228 c0.22-0.549,0.768-1.202,2.127-1.202h7.312c2.325,0,3.384,1.166,3.384,2.25v3C64.75,55.532,64.711,58.75,61.366,58.75z M54.055,50.75c-0.879,0-1.423,0.291-1.663,0.889c-0.666,1.658,1.117,4.993,1.836,5.681c0.96,0.92,2.94,0.931,2.96,0.931h4.179 c2.841,0,2.884-2.638,2.884-2.75v-3c0-0.843-0.902-1.75-2.884-1.75H54.055z"/><path fill="#472b29" d="M49.807,65.007c-0.463,0-1.465-0.094-1.973-0.855c-0.382-0.573-0.382-0.573-1.548-0.785 c-0.737-0.134-1.065-0.542-1.21-0.861c-0.483-1.062,0.394-2.591,0.495-2.761c0.141-0.237,0.448-0.315,0.685-0.174 c0.237,0.141,0.315,0.447,0.175,0.685c-0.236,0.4-0.656,1.375-0.444,1.837c0.028,0.061,0.102,0.222,0.479,0.291 c1.45,0.264,1.601,0.314,2.202,1.215c0.272,0.408,1.037,0.429,1.284,0.405c0.281-0.029,0.52,0.173,0.547,0.448 c0.027,0.275-0.173,0.52-0.448,0.547C50.035,64.999,49.945,65.007,49.807,65.007z"/><path fill="#472b29" d="M49.615,65.007c-0.136,0-0.224-0.009-0.238-0.01c-0.275-0.029-0.474-0.275-0.445-0.549 s0.268-0.474,0.549-0.445c0.008,0.001,0.91,0.073,1.228-0.405c0.61-0.916,0.853-0.959,2.196-1.204 c0.438-0.08,0.511-0.241,0.539-0.302c0.212-0.466-0.208-1.438-0.444-1.836c-0.142-0.238-0.063-0.544,0.174-0.685 c0.237-0.14,0.544-0.064,0.686,0.174c0.102,0.171,0.979,1.7,0.495,2.762c-0.146,0.319-0.474,0.727-1.21,0.861 c-1.229,0.223-1.229,0.223-1.604,0.785C51.034,64.913,50.065,65.007,49.615,65.007z"/><path fill="#472b29" d="M40,68.25c-0.117,0-0.221-0.082-0.245-0.201c-0.486-2.429-1.955-4.896-1.969-4.92 c-0.071-0.118-0.033-0.272,0.086-0.343c0.118-0.07,0.272-0.033,0.343,0.086c0.062,0.104,1.528,2.566,2.031,5.08 c0.027,0.135-0.061,0.267-0.196,0.294C40.033,68.249,40.016,68.25,40,68.25z"/><path fill="#472b29" d="M60,68.25c-0.016,0-0.032-0.001-0.049-0.005c-0.136-0.027-0.224-0.159-0.196-0.294 c0.503-2.513,1.969-4.976,2.03-5.08c0.07-0.119,0.223-0.157,0.344-0.086c0.118,0.071,0.156,0.225,0.086,0.343 c-0.016,0.025-1.484,2.493-1.97,4.92C60.222,68.168,60.117,68.25,60,68.25z"/><path fill="#472b29" d="M41.009,52.5c0.045,0.741,0.654,1.33,1.406,1.33s1.362-0.589,1.406-1.33H41.009z"/><path fill="#472b29" d="M56.125,52.5c0.045,0.741,0.654,1.33,1.406,1.33s1.362-0.589,1.406-1.33H56.125z"/><path fill="#472b29" d="M42.48,54.831c-0.26,0-0.524-0.027-0.788-0.089c-1.017-0.24-1.83-0.956-2.416-2.129 c-0.039-0.077-0.035-0.169,0.011-0.243c0.046-0.074,0.126-0.119,0.213-0.119h5c0.066,0,0.13,0.026,0.177,0.073l1,1 c0.051,0.051,0.078,0.122,0.073,0.195c-0.005,0.072-0.042,0.139-0.1,0.182C45.58,53.753,44.121,54.831,42.48,54.831z M39.922,52.75 c0.493,0.819,1.125,1.324,1.883,1.504c1.337,0.316,2.75-0.445,3.303-0.792l-0.712-0.712H39.922z"/><path fill="#472b29" d="M50,69.872c-1.55,0-3.1-0.513-4.639-1.539c-0.115-0.077-0.146-0.232-0.069-0.347 c0.077-0.115,0.233-0.145,0.347-0.069c2.935,1.957,5.788,1.956,8.723,0c0.114-0.076,0.27-0.046,0.347,0.069 c0.076,0.115,0.046,0.27-0.069,0.347C53.1,69.359,51.55,69.872,50,69.872z"/><path fill="#472b29" d="M57.541,54.831c-1.641,0-3.099-1.078-3.17-1.131c-0.058-0.043-0.094-0.11-0.099-0.182 c-0.006-0.073,0.021-0.143,0.072-0.195l1-1c0.047-0.047,0.11-0.073,0.177-0.073h5c0.087,0,0.167,0.045,0.213,0.119 c0.045,0.074,0.05,0.166,0.011,0.243c-0.587,1.173-1.399,1.889-2.416,2.129C58.065,54.803,57.801,54.831,57.541,54.831z M54.913,53.462c0.553,0.348,1.971,1.109,3.303,0.792c0.759-0.18,1.392-0.685,1.884-1.504h-4.475L54.913,53.462z"/><path fill="#472b29" d="M51.875,53h-3.75c-0.276,0-0.5-0.224-0.5-0.5s0.224-0.5,0.5-0.5h3.75c0.276,0,0.5,0.224,0.5,0.5 S52.151,53,51.875,53z"/><g><path fill="#472b29" d="M41.125,64.75c-0.06,0-0.12-0.021-0.168-0.065c-0.103-0.093-0.11-0.251-0.017-0.353 c2.488-2.737,4.888-4.515,4.912-4.533c0.111-0.082,0.268-0.059,0.35,0.053c0.082,0.111,0.058,0.268-0.053,0.349 c-0.024,0.017-2.386,1.769-4.838,4.467C41.261,64.722,41.193,64.75,41.125,64.75z"/></g><g><path fill="#472b29" d="M58,64.25c-0.08,0-0.16-0.039-0.208-0.111c-1.934-2.9-3.885-3.906-3.904-3.915 c-0.123-0.062-0.173-0.212-0.111-0.335c0.063-0.124,0.217-0.172,0.335-0.112c0.085,0.042,2.083,1.064,4.097,4.085 c0.076,0.115,0.046,0.27-0.069,0.347C58.096,64.236,58.048,64.25,58,64.25z"/></g><g><path fill="#472b29" d="M51.75,62.125c-0.112,0-0.214-0.076-0.242-0.189l-0.75-3l-0.122-2.298 c-0.007-0.138,0.099-0.255,0.237-0.262c0.161-0.007,0.256,0.099,0.263,0.237l0.115,2.25l0.742,2.952 c0.034,0.134-0.048,0.27-0.182,0.303C51.79,62.123,51.77,62.125,51.75,62.125z"/></g><g><path fill="#472b29" d="M50.82,55.625c-0.132,0-0.243-0.104-0.25-0.237l-0.07-1.375c-0.007-0.138,0.099-0.255,0.237-0.262 c0.158-0.007,0.255,0.099,0.262,0.237l0.071,1.375c0.007,0.138-0.099,0.255-0.237,0.262C50.829,55.625,50.824,55.625,50.82,55.625z"/></g><g><path fill="#472b29" d="M38.875,52.875c-0.035,0-0.069-0.007-0.102-0.021l-1.125-0.5c-0.126-0.056-0.183-0.204-0.127-0.33 s0.205-0.183,0.33-0.127l1.069,0.475l1.939-0.121c0.13-0.009,0.256,0.096,0.265,0.234s-0.096,0.257-0.234,0.265l-2,0.125 C38.885,52.875,38.88,52.875,38.875,52.875z"/></g><g><path fill="#472b29" d="M61,52.875c-0.005,0-0.011,0-0.016,0l-2-0.125c-0.138-0.009-0.242-0.127-0.233-0.265 c0.008-0.137,0.139-0.238,0.265-0.234l1.938,0.121l1.069-0.475c0.126-0.056,0.274,0,0.33,0.127c0.056,0.126-0.001,0.274-0.127,0.33 l-1.125,0.5C61.069,52.868,61.035,52.875,61,52.875z"/></g><g><path fill="#bd977c" d="M66.125,43.25c-11.181,3.006-22.389,2.991-33.625,0V35c10.887,1.957,22.125,2.046,33.625,0V43.25z"/></g><g><path fill="#472b29" d="M49.995,37c-0.276,0-0.5-0.224-0.5-0.5s0.224-0.5,0.5-0.5c6.326,0,11.553-0.783,15.754-1.412 l0.552-0.083c0.278-0.04,0.527,0.148,0.568,0.421c0.041,0.273-0.147,0.528-0.42,0.568l-0.553,0.083 C61.663,36.211,56.395,37,49.995,37z"/></g><g><path fill="#472b29" d="M47.625,36.982c-0.002,0-0.005,0-0.008,0c-2.914-0.046-5.576-0.175-7.912-0.383 c-0.275-0.025-0.478-0.268-0.454-0.542c0.025-0.275,0.27-0.473,0.542-0.454c2.312,0.207,4.949,0.334,7.838,0.379 c0.276,0.004,0.497,0.232,0.492,0.508C48.121,36.763,47.897,36.982,47.625,36.982z"/></g><g><path fill="#472b29" d="M37.5,36.361c-0.021,0-0.042-0.001-0.063-0.004c-1.854-0.232-3.434-0.526-4.696-0.875 c-0.266-0.074-0.422-0.349-0.349-0.615c0.074-0.267,0.352-0.422,0.615-0.349c1.216,0.336,2.748,0.622,4.554,0.847 c0.274,0.034,0.468,0.284,0.434,0.558C37.964,36.176,37.749,36.361,37.5,36.361z"/></g><g><path fill="#472b29" d="M42.875,56.631c-0.089,0-0.176-0.048-0.221-0.133c-0.065-0.122-0.019-0.273,0.103-0.338 c1.136-0.605,1.981-1.533,2.513-2.76c0.055-0.127,0.201-0.186,0.329-0.13c0.126,0.055,0.185,0.202,0.13,0.329 c-0.578,1.333-1.499,2.343-2.737,3.002C42.955,56.621,42.915,56.631,42.875,56.631z"/></g><g><path fill="#472b29" d="M56.631,56.375c-0.05,0-0.101-0.015-0.144-0.046c-0.918-0.646-1.622-1.523-2.092-2.605 c-0.055-0.127,0.003-0.274,0.13-0.329c0.127-0.055,0.274,0.003,0.329,0.13c0.433,0.997,1.078,1.803,1.92,2.396 c0.113,0.079,0.141,0.235,0.061,0.348C56.786,56.338,56.709,56.375,56.631,56.375z"/></g><g><path fill="#472b29" d="M49.5,21.4c3.931,0,8.379,0.752,13.221,2.236c1.186,0.363,2.062,1.576,2.18,3.019l0.686,8.406 c0.009,0.108,0.013,0.218,0.013,0.327v7.17c-0.95,0.874-6.396,2.042-16.1,2.042s-15.15-1.168-16.1-2.042v-7.17 c0-0.109,0.004-0.218,0.013-0.327l0.686-8.406c0.118-1.442,0.994-2.656,2.18-3.019C41.121,22.152,45.569,21.4,49.5,21.4 M49.5,20 c-4.9,0-9.724,1.1-13.631,2.297c-1.746,0.535-3.001,2.235-3.165,4.244l-0.686,8.406C32.006,35.093,32,35.24,32,35.387v7.363 C32,44.917,40.385,46,49.5,46S67,44.917,67,42.75v-7.363c0-0.147-0.006-0.294-0.018-0.44l-0.686-8.406 c-0.164-2.009-1.419-3.709-3.165-4.244C59.224,21.1,54.4,20,49.5,20L49.5,20z"/></g></svg>